<?xml version="1.0" encoding="UTF-8" standalone="no"?>
<!-- Created with Inkscape (http://www.inkscape.org/) -->

<svg
   width="210mm"
   height="297mm"
   viewBox="0 0 210 297"
   version="1.1"
   id="svg5"
   inkscape:version="1.1 (c68e22c387, 2021-05-23)"
   sodipodi:docname="logo.svg"
   xmlns:inkscape="http://www.inkscape.org/namespaces/inkscape"
   xmlns:sodipodi="http://sodipodi.sourceforge.net/DTD/sodipodi-0.dtd"
   xmlns="http://www.w3.org/2000/svg"
   xmlns:svg="http://www.w3.org/2000/svg">
  <sodipodi:namedview
     id="namedview7"
     pagecolor="#e5e5e5"
     bordercolor="#f64271"
     borderopacity="0.22352941"
     inkscape:pageshadow="0"
     inkscape:pageopacity="0"
     inkscape:pagecheckerboard="0"
     inkscape:document-units="mm"
     showgrid="false"
     inkscape:zoom="0.024275744"
     inkscape:cx="102.98346"
     inkscape:cy="1544.7518"
     inkscape:window-width="1920"
     inkscape:window-height="1057"
     inkscape:window-x="-8"
     inkscape:window-y="-8"
     inkscape:window-maximized="1"
     inkscape:current-layer="layer1" />
  <defs
     id="defs2" />
  <g
     inkscape:label="Layer 1"
     inkscape:groupmode="layer"
     id="layer1">
    <rect
       style="fill:#ff9900;fill-opacity:1;stroke-width:0.142638;stroke:none"
       id="rect2350"
       width="1449.5779"
       height="1302.8737"
       x="-1084.4592"
       y="-757.9198"
       transform="scale(1,-1)"
       inkscape:export-filename="C:\Users\Costa\AndroidStudioProjects\ToDo\app\src\main\res\background.png"
       inkscape:export-xdpi="96"
       inkscape:export-ydpi="96" />
    <path
       style="fill:#ffffff;fill-opacity:1;stroke-width:3.7191"
       d="M 780.85665,893.56867 C 765.90522,889.65182 744.98527,881.823 734.36786,876.1713 706.44391,861.30724 664.86028,818.54767 650.8589,790.30078 625.90907,739.96618 627.29427,789.17921 628.48766,-4.5018238 629.51828,-689.92538 629.87542,-723.211 636.40868,-742.7438 c 18.56014,-55.4901 54.27218,-98.91144 101.87216,-123.8637 36.59144,-19.18151 66.12394,-24.75811 131.52538,-24.83585 l 54.32695,-0.0646 2.3371,-22.36038 c 3.806,-36.41353 21.0813,-62.47683 52.6008,-79.35903 l 14.9251,-7.99414 352.64423,-1.0034 c 237.0654,-0.6745 357.3837,0.2729 367.1051,2.89064 36.7165,9.8867 66.8411,49.5645 66.8411,88.03814 v 19.78817 h 57.0511 c 63.8705,0 99.3804,6.62255 133.83,24.95909 27.8733,14.83611 69.462,57.61449 83.4528,85.8399 24.9498,50.3346 23.5646,1.1216 22.3712,794.802632 -1.0286,684.057678 -1.3992,718.748098 -7.8866,738.241968 -17.9922,54.06385 -55.2648,99.35688 -101.9178,123.84877 -49.6392,26.05961 -18.0766,24.80151 -618.3167,24.64598 -520.91811,-0.13501 -542.14489,-0.40617 -568.31395,-7.26174 z M 1901.0259,784.95587 c 9.3564,-2.79375 22.7629,-11.8308 34.483,-23.24439 33.8482,-32.96293 31.0549,36.01055 30.8696,-762.2394418 -0.1343,-577.7078982 -1.0517,-705.6549382 -5.143,-717.1194482 -7.3412,-20.57127 -22.4277,-38.47204 -42.2384,-50.11742 -16.9096,-9.94009 -19.7106,-10.35534 -77.9751,-11.56021 l -60.4354,-1.24976 v 20.10816 c 0,38.80766 -29.9742,78.43089 -66.8411,88.35813 -9.7214,2.61769 -130.0397,3.56507 -367.1051,2.89057 l -352.64423,-1.00335 -14.9251,-7.9941 c -31.5195,-16.88224 -48.7948,-42.94554 -52.6008,-79.35906 l -2.3371,-22.36038 h -52.03591 c -29.12791,0 -58.46256,1.92546 -66.63413,4.37373 -18.48242,5.53747 -45.49013,29.1414 -56.15343,49.07643 l -8.21249,15.35325 V 6.6554852 724.44238 l 10.31045,17.5397 c 11.64538,19.81066 29.54613,34.8972 50.11742,42.23838 19.67945,7.02289 1076.07732,7.72948 1099.50082,0.73541 z M 1001.4344,567.95502 c -2.04553,-0.50814 -8.48803,-1.98076 -14.31663,-3.27248 -12.831,-2.84355 -80.646,-67.21509 -95.9501,-91.07797 -28.23581,-44.02644 6.226,-93.87712 58.1617,-84.13389 8.5431,1.60268 20.6909,9.57454 35.5417,23.32369 l 22.56233,20.88875 71.5998,-71.25813 c 74.6689,-74.31266 73.8789,-73.76476 102.7778,-71.283 22.0197,1.89101 42.6063,20.79138 46.7594,42.92946 4.9889,26.59288 -1.7183,35.71544 -96.4822,131.22643 -49.359,49.74817 -93.0514,92.26823 -97.0943,94.48898 -8.6023,4.72527 -28.2088,9.49737 -33.5595,8.16816 z m 345.1357,-91.13116 c -16.4884,-8.16168 -30.8714,-30.54823 -30.8714,-48.05018 0,-17.73116 14.4359,-40.03335 31.1505,-48.12478 15.4128,-7.46119 21.3218,-7.66016 225.712,-7.60058 l 209.8849,0.061 14.4893,8.3068 c 7.969,4.56873 17.5922,14.13828 21.3848,21.26565 14.1212,26.53781 4.8403,58.41402 -21.3848,73.44912 l -14.4893,8.30681 -210.1293,0.0584 c -205.3499,0.0569 -210.4846,-0.11753 -225.7467,-7.67225 z M 1001.4344,196.04471 c -2.04553,-0.50815 -8.48803,-1.98076 -14.31663,-3.27248 -12.831,-2.84355 -80.646,-67.21508 -95.9501,-91.07796 -28.23581,-44.02645 6.226,-93.8771228 58.1617,-84.133891 8.5431,1.602673 20.6909,9.574534 35.5417,23.323686 l 22.56233,20.888752 71.5998,-71.2581278 c 74.6689,-74.3126652 73.8789,-73.7647652 102.7778,-71.2830152 22.0197,1.89102 42.6063,20.79139 46.7594,42.92946 4.9889,26.592895 -1.7183,35.7154462 -96.4822,131.22644 -49.359,49.748176 -93.0514,92.268226 -97.0943,94.488976 -8.6023,4.72527 -28.2088,9.49736 -33.5595,8.16816 z m 345.1357,-91.08277 c -16.4854,-8.211256 -30.8714,-30.6251 -30.8714,-48.098562 0,-17.825327 14.4326,-40.031757 31.336,-48.2145648 15.7351,-7.617244 19.6896,-7.733875 228.2313,-6.731986 207.7255,0.997985 212.4361,1.181894 222.4864,8.6875648 18.4361,13.76812 25.1747,26.15039 25.1747,46.258986 0,20.108595 -6.7386,32.490903 -25.1747,46.258982 -10.0528,7.50742 -14.721,7.68843 -222.9164,8.64324 -209.2901,0.95982 -212.8952,0.85238 -228.2659,-6.80366 z M 982.83887,-209.25895 c -16.2601,-8.36415 -90.9996,-83.26964 -97.0849,-97.30055 -11.89508,-27.42664 -0.3544,-58.74997 26.4213,-71.71186 27.2839,-13.20791 45.3399,-7.88123 74.2519,21.90507 l 18.46483,19.02303 70.7937,-70.37254 c 60.0525,-59.69517 72.9298,-70.76668 84.872,-72.97025 29.9706,-5.53016 54.0779,7.05268 64.1773,33.49751 12.5388,32.83232 11.6766,34.12854 -92.485,139.05061 -51.4935,51.8694 -99.01,96.63811 -105.5921,99.48601 -15.5458,6.72622 -29.95093,6.52666 -43.81903,-0.60703 z m 363.73123,-57.68943 c -16.4854,-8.21126 -30.8714,-30.6251 -30.8714,-48.09856 0,-17.82533 14.4326,-40.03176 31.336,-48.21457 15.7351,-7.61724 19.6896,-7.73387 228.2313,-6.73198 207.7255,0.99798 212.4361,1.18189 222.4864,8.68756 18.4361,13.76812 25.1747,26.15039 25.1747,46.25899 0,20.10859 -6.7386,32.4909 -25.1747,46.25898 -10.0528,7.50742 -14.721,7.68843 -222.9164,8.64324 -209.2901,0.95982 -212.8952,0.85238 -228.2659,-6.80366 z m 322.4434,-568.773 v -55.78655 h -316.1238 -316.1238 v 55.78655 55.78655 h 316.1238 316.1238 z"
       id="path1170"
       inkscape:export-filename="C:\Users\Costa\AndroidStudioProjects\ToDo\app\src\main\res\foreground.png"
       inkscape:export-xdpi="96"
       inkscape:export-ydpi="96" />
  </g>
</svg>
